<svg width="299" height="300" viewBox="0 0 299 300" fill="none" xmlns="http://www.w3.org/2000/svg">
<rect x="1" y="1" width="297" height="298" fill="white" stroke="white" stroke-width="2"/>
<circle cx="148.5" cy="150.5" r="144.8" fill="white" stroke="black" stroke-width="1.4"/>
<path d="M3 150.3L10 154.341V146.259L3 150.3ZM294 150.3L287 146.259V154.341L294 150.3ZM9.3 151H287.7V149.6H9.3V151Z" fill="black"/>
<path d="M148.7 5L144.658 12H152.741L148.7 5ZM148.7 296L152.741 289H144.658L148.7 296ZM148 11.3L148 289.7H149.4L149.4 11.3H148Z" fill="black"/>
<path d="M176.786 127.17C177.258 127.775 186.938 135.611 182.872 150.333" stroke="black" stroke-width="1.5" stroke-linecap="round"/>
<path d="M174.405 146.117C173.331 146.117 172.544 145.7 172.046 144.865C171.548 144.025 171.299 142.746 171.299 141.027C171.299 139.303 171.573 137.99 172.12 137.086C172.667 136.183 173.467 135.731 174.522 135.731C175.591 135.731 176.385 136.144 176.902 136.969C177.42 137.794 177.679 139.069 177.679 140.792C177.679 142.57 177.405 143.903 176.858 144.792C176.312 145.675 175.494 146.117 174.405 146.117ZM172.647 140.514H176.324C176.255 137.711 175.645 136.31 174.493 136.31C173.301 136.31 172.686 137.711 172.647 140.514ZM176.331 141.261H172.647C172.701 144.108 173.323 145.531 174.515 145.531C175.706 145.531 176.312 144.108 176.331 141.261Z" fill="black"/>
<path d="M188.779 42.0776V43.4043H187.973C187.901 43.1292 187.812 42.9134 187.707 42.7568C187.601 42.596 187.478 42.4839 187.338 42.4204C187.199 42.3569 187.025 42.3252 186.818 42.3252C186.522 42.3252 186.259 42.4204 186.031 42.6108C185.802 42.8013 185.62 43.0911 185.485 43.4805C185.354 43.8698 185.288 44.3459 185.288 44.9087C185.288 45.2684 185.313 45.5985 185.364 45.8989C185.415 46.1951 185.502 46.4491 185.625 46.6606C185.747 46.8722 185.91 47.0373 186.113 47.1558C186.316 47.2743 186.568 47.3335 186.869 47.3335C187.161 47.3335 187.431 47.2764 187.681 47.1621C187.935 47.0479 188.197 46.8468 188.468 46.5591L188.83 46.978C188.614 47.215 188.424 47.3991 188.259 47.5303C188.094 47.6572 187.916 47.7651 187.726 47.854C187.539 47.9386 187.353 48 187.167 48.0381C186.985 48.0804 186.786 48.1016 186.57 48.1016C185.771 48.1016 185.159 47.8371 184.736 47.3081C184.313 46.7749 184.101 46.0068 184.101 45.0039C184.101 44.3776 184.22 43.8232 184.457 43.3408C184.694 42.8542 185.026 42.4797 185.453 42.2173C185.881 41.9549 186.374 41.8237 186.932 41.8237C187.279 41.8237 187.599 41.8449 187.891 41.8872C188.187 41.9253 188.483 41.9888 188.779 42.0776ZM192.55 48.1016C191.67 48.1016 190.997 47.8434 190.531 47.3271C190.07 46.8066 189.839 46.0386 189.839 45.0229C189.839 44.3247 189.96 43.7344 190.201 43.252C190.447 42.7695 190.781 42.4119 191.204 42.1792C191.627 41.9422 192.11 41.8237 192.651 41.8237C193.557 41.8237 194.243 42.0882 194.708 42.6172C195.174 43.1419 195.406 43.8973 195.406 44.8833C195.406 45.5858 195.29 46.1782 195.057 46.6606C194.824 47.1431 194.494 47.5049 194.067 47.7461C193.639 47.9831 193.134 48.1016 192.55 48.1016ZM191.039 44.8896C191.039 45.7614 191.177 46.4321 191.452 46.9019C191.731 47.3674 192.129 47.6001 192.645 47.6001C192.929 47.6001 193.17 47.5324 193.369 47.397C193.568 47.2573 193.728 47.0711 193.851 46.8384C193.978 46.6056 194.069 46.3369 194.124 46.0322C194.179 45.7233 194.207 45.4017 194.207 45.0674C194.207 44.4453 194.137 43.929 193.997 43.5186C193.862 43.1081 193.675 42.8076 193.438 42.6172C193.201 42.4225 192.931 42.3252 192.626 42.3252C192.114 42.3252 191.72 42.5474 191.445 42.9917C191.174 43.436 191.039 44.0687 191.039 44.8896ZM200.948 43.3218H200.338C200.245 43.0679 200.135 42.869 200.008 42.7251C199.881 42.577 199.737 42.4733 199.577 42.4141C199.416 42.3548 199.219 42.3252 198.986 42.3252C198.648 42.3252 198.377 42.4056 198.174 42.5664C197.975 42.723 197.875 42.9388 197.875 43.2139C197.875 43.4085 197.916 43.5693 197.996 43.6963C198.076 43.8232 198.201 43.9417 198.371 44.0518C198.54 44.1618 198.838 44.3078 199.266 44.4897C199.697 44.6759 200.029 44.8473 200.262 45.0039C200.499 45.1605 200.683 45.3424 200.814 45.5498C200.95 45.7572 201.018 46.0047 201.018 46.2925C201.018 46.6268 200.96 46.9082 200.846 47.1367C200.732 47.3652 200.571 47.5514 200.364 47.6953C200.156 47.8392 199.909 47.9429 199.621 48.0063C199.338 48.0698 199.027 48.1016 198.688 48.1016C198.333 48.1016 197.988 48.0741 197.653 48.019C197.319 47.9683 196.993 47.9006 196.676 47.8159V46.4893H197.298C197.412 46.8786 197.581 47.1621 197.806 47.3398C198.03 47.5133 198.339 47.6001 198.732 47.6001C198.885 47.6001 199.033 47.5853 199.177 47.5557C199.325 47.5218 199.456 47.4689 199.57 47.397C199.685 47.3208 199.776 47.2192 199.843 47.0923C199.911 46.9653 199.945 46.8066 199.945 46.6162C199.945 46.4004 199.903 46.2248 199.818 46.0894C199.733 45.9539 199.602 45.8312 199.424 45.7212C199.247 45.6069 198.933 45.4546 198.485 45.2642C198.1 45.1034 197.791 44.9468 197.558 44.7944C197.325 44.6421 197.141 44.4622 197.006 44.2549C196.875 44.0475 196.809 43.8021 196.809 43.5186C196.809 43.1715 196.902 42.8711 197.088 42.6172C197.279 42.359 197.552 42.1623 197.907 42.0269C198.263 41.8914 198.68 41.8237 199.158 41.8237C199.437 41.8237 199.706 41.8385 199.964 41.8682C200.226 41.8936 200.554 41.9465 200.948 42.0269V43.3218ZM203.906 44.7881C203.906 46.2692 204.143 47.4901 204.617 48.4507C205.095 49.4113 205.823 50.0545 206.8 50.3804L206.648 50.8691C205.408 50.5433 204.458 49.8408 203.798 48.7617C203.138 47.6868 202.808 46.3835 202.808 44.8516C202.808 43.3239 203.138 42.0205 203.798 40.9414C204.462 39.8581 205.412 39.1535 206.648 38.8276L206.819 39.3164C205.829 39.6423 205.095 40.2791 204.617 41.2271C204.143 42.1707 203.906 43.3577 203.906 44.7881ZM210.533 48.1016C209.602 48.1016 208.92 47.7397 208.489 47.0161C208.057 46.2882 207.841 45.1795 207.841 43.6899C207.841 42.1961 208.078 41.0578 208.552 40.2749C209.026 39.492 209.72 39.1006 210.634 39.1006C211.561 39.1006 212.249 39.4582 212.697 40.1733C213.146 40.8885 213.37 41.993 213.37 43.4868C213.37 45.0272 213.133 46.1825 212.659 46.9526C212.185 47.7186 211.476 48.1016 210.533 48.1016ZM209.009 43.2456H212.196C212.137 40.8166 211.608 39.6021 210.609 39.6021C209.576 39.6021 209.043 40.8166 209.009 43.2456ZM212.202 43.8931H209.009C209.056 46.3602 209.595 47.5938 210.628 47.5938C211.66 47.5938 212.185 46.3602 212.202 43.8931ZM217.325 44.7881C217.325 43.3577 217.088 42.1707 216.614 41.2271C216.14 40.2791 215.406 39.6423 214.411 39.3164L214.583 38.8276C215.818 39.1535 216.766 39.8581 217.426 40.9414C218.091 42.0205 218.423 43.3239 218.423 44.8516C218.423 46.3835 218.093 47.6868 217.433 48.7617C216.772 49.8408 215.822 50.5433 214.583 50.8691L214.43 50.3804C215.408 50.0545 216.133 49.4113 216.607 48.4507C217.086 47.4901 217.325 46.2692 217.325 44.7881Z" fill="black"/>
<path d="M203.9 93.5014C204.08 93.6947 204.227 93.832 204.34 93.9133C204.454 93.9882 204.567 94.0325 204.679 94.0461C204.792 94.0532 204.917 94.027 205.054 93.9673C205.189 93.9043 205.344 93.8097 205.519 93.6836C205.691 93.5542 205.909 93.3732 206.171 93.1405L206.512 93.5055L202.817 96.9508L202.477 96.5858C202.831 96.2242 203.074 95.957 203.206 95.7842C203.338 95.605 203.419 95.4483 203.45 95.3139C203.48 95.1795 203.466 95.0436 203.406 94.9061C203.35 94.7655 203.213 94.5785 202.995 94.3452L199.214 90.2906C199.09 90.1573 198.976 90.0824 198.874 90.0659C198.768 90.0461 198.67 90.0781 198.58 90.1621C198.474 90.2615 198.373 90.4579 198.279 90.7513C198.185 91.0447 198.083 91.4232 197.974 91.8869L197.395 91.7071L198.434 88.1304L198.709 87.874C198.987 88.2126 199.39 88.6652 199.919 89.2318L203.9 93.5014Z" fill="black"/>
<path d="M244.962 119.731V120.388C244.688 120.488 244.474 120.606 244.319 120.743C244.16 120.88 244.048 121.035 243.984 121.208C243.921 121.381 243.889 121.593 243.889 121.844C243.889 122.208 243.975 122.5 244.148 122.719C244.317 122.933 244.549 123.04 244.846 123.04C245.055 123.04 245.229 122.997 245.365 122.91C245.502 122.824 245.63 122.689 245.748 122.507C245.867 122.325 246.024 122.003 246.22 121.543C246.42 121.078 246.605 120.72 246.773 120.47C246.942 120.215 247.138 120.016 247.361 119.875C247.585 119.729 247.851 119.656 248.161 119.656C248.521 119.656 248.824 119.718 249.07 119.841C249.316 119.964 249.517 120.137 249.672 120.36C249.827 120.584 249.938 120.85 250.007 121.16C250.075 121.465 250.109 121.8 250.109 122.165C250.109 122.548 250.08 122.919 250.021 123.279C249.966 123.639 249.893 123.99 249.802 124.332H248.373V123.662C248.792 123.539 249.098 123.357 249.289 123.115C249.476 122.874 249.569 122.541 249.569 122.117C249.569 121.953 249.553 121.794 249.521 121.639C249.485 121.479 249.428 121.338 249.351 121.215C249.269 121.092 249.159 120.994 249.022 120.921C248.886 120.848 248.715 120.812 248.51 120.812C248.277 120.812 248.088 120.857 247.942 120.948C247.797 121.039 247.664 121.181 247.546 121.372C247.423 121.563 247.259 121.901 247.054 122.384C246.881 122.799 246.712 123.131 246.548 123.382C246.384 123.632 246.19 123.831 245.967 123.977C245.743 124.118 245.479 124.188 245.174 124.188C244.8 124.188 244.477 124.088 244.203 123.888C243.925 123.683 243.713 123.389 243.567 123.006C243.422 122.623 243.349 122.174 243.349 121.659C243.349 121.358 243.365 121.069 243.396 120.791C243.424 120.508 243.481 120.155 243.567 119.731H244.962ZM248.838 112.834C249.143 113.126 249.382 113.395 249.556 113.641C249.729 113.882 249.866 114.149 249.966 114.44C250.062 114.732 250.109 115.053 250.109 115.404C250.109 116.343 249.829 117.052 249.269 117.53C248.703 118.009 247.872 118.248 246.773 118.248C246.094 118.248 245.495 118.127 244.976 117.886C244.456 117.64 244.055 117.291 243.772 116.84C243.49 116.389 243.349 115.869 243.349 115.281C243.349 114.821 243.422 114.429 243.567 114.105C243.713 113.782 243.914 113.524 244.169 113.333C244.42 113.137 244.739 112.987 245.126 112.882C245.509 112.772 246.01 112.711 246.63 112.697V117.004H246.753C247.291 117.004 247.744 116.945 248.113 116.826C248.478 116.703 248.765 116.505 248.975 116.231C249.18 115.953 249.282 115.593 249.282 115.151C249.282 114.778 249.214 114.443 249.077 114.146C248.936 113.846 248.708 113.547 248.394 113.251L248.838 112.834ZM246.062 113.982C245.57 114.01 245.169 114.071 244.859 114.167C244.545 114.263 244.306 114.406 244.142 114.598C243.973 114.789 243.889 115.04 243.889 115.35C243.889 115.819 244.078 116.195 244.456 116.478C244.83 116.756 245.365 116.92 246.062 116.97V113.982ZM250 104.802V107.495H249.665C249.61 107.317 249.562 107.19 249.521 107.112C249.48 107.035 249.424 106.971 249.351 106.921C249.278 106.866 249.166 106.825 249.016 106.798C248.861 106.766 248.628 106.75 248.318 106.75H246.527C246.208 106.75 245.919 106.759 245.659 106.777C245.399 106.796 245.188 106.827 245.023 106.873C244.855 106.914 244.725 106.966 244.634 107.03C244.538 107.09 244.458 107.162 244.395 107.249C244.326 107.331 244.274 107.427 244.237 107.536C244.196 107.646 244.176 107.789 244.176 107.967C244.176 108.145 244.212 108.313 244.285 108.473C244.354 108.632 244.474 108.808 244.647 108.999C244.821 109.19 244.992 109.329 245.16 109.416C245.329 109.503 245.522 109.546 245.741 109.546H248.291C248.683 109.546 248.956 109.528 249.111 109.491C249.262 109.455 249.378 109.386 249.46 109.286C249.537 109.181 249.606 109.013 249.665 108.78H250V111.46H249.665C249.61 111.282 249.562 111.157 249.521 111.084C249.48 111.007 249.424 110.943 249.351 110.893C249.278 110.838 249.166 110.797 249.016 110.77C248.865 110.738 248.631 110.722 248.312 110.722H245.331C245.039 110.722 244.805 110.726 244.627 110.735C244.449 110.744 244.308 110.776 244.203 110.831C244.094 110.886 244.014 110.97 243.964 111.084C243.909 111.193 243.864 111.351 243.827 111.556H243.465L243.403 109.956V109.539L244.518 109.614L244.545 109.519C244.203 109.181 243.959 108.91 243.813 108.705C243.668 108.495 243.556 108.286 243.479 108.076C243.396 107.862 243.355 107.636 243.355 107.399C243.355 107.153 243.385 106.935 243.444 106.743C243.499 106.547 243.586 106.376 243.704 106.23C243.823 106.08 243.971 105.957 244.148 105.861C244.322 105.766 244.531 105.695 244.777 105.649C245.023 105.599 245.336 105.574 245.714 105.574H248.291C248.605 105.574 248.833 105.565 248.975 105.547C249.116 105.529 249.225 105.497 249.303 105.451C249.38 105.406 249.446 105.34 249.501 105.253C249.551 105.166 249.606 105.016 249.665 104.802H250ZM246.541 101.89C248.136 101.89 249.451 101.634 250.485 101.124C251.52 100.609 252.213 99.8252 252.563 98.7725L253.09 98.9365C252.739 100.272 251.982 101.295 250.82 102.006C249.663 102.717 248.259 103.072 246.609 103.072C244.964 103.072 243.561 102.717 242.398 102.006C241.232 101.29 240.473 100.267 240.122 98.9365L240.648 98.752C240.999 99.8184 241.685 100.609 242.706 101.124C243.722 101.634 245.001 101.89 246.541 101.89ZM250.109 94.7529C250.109 95.7555 249.72 96.4893 248.94 96.9541C248.157 97.4189 246.963 97.6514 245.358 97.6514C243.75 97.6514 242.524 97.3962 241.681 96.8857C240.838 96.3753 240.416 95.6279 240.416 94.6436C240.416 93.6455 240.801 92.9049 241.571 92.4219C242.341 91.9388 243.531 91.6973 245.14 91.6973C246.799 91.6973 248.043 91.9525 248.872 92.4629C249.697 92.9733 250.109 93.7367 250.109 94.7529ZM244.88 96.3936V92.9619C242.264 93.0257 240.956 93.5954 240.956 94.6709C240.956 95.7829 242.264 96.3571 244.88 96.3936ZM245.577 92.9551V96.3936C248.234 96.3434 249.562 95.7624 249.562 94.6504C249.562 93.5384 248.234 92.9733 245.577 92.9551ZM246.541 87.4385C245.001 87.4385 243.722 87.6937 242.706 88.2041C241.685 88.7145 240.999 89.5052 240.648 90.5762L240.122 90.3916C240.473 89.0609 241.232 88.04 242.398 87.3291C243.561 86.6136 244.964 86.2559 246.609 86.2559C248.259 86.2559 249.663 86.6113 250.82 87.3223C251.982 88.0332 252.739 89.0563 253.09 90.3916L252.563 90.5557C252.213 89.5029 251.52 88.7214 250.485 88.2109C249.451 87.696 248.136 87.4385 246.541 87.4385Z" fill="black"/>
<line x1="149" y1="54.25" x2="256" y2="54.25" stroke="#FF0000" stroke-width="1.5" stroke-dasharray="3 3"/>
<line x1="255.75" y1="55.5" x2="255.75" y2="149.5" stroke="#FFC702" stroke-width="1.5" stroke-dasharray="3 3"/>
<path d="M253.38 56.9174C254.859 58.5583 257.388 58.6895 259.029 57.2105C260.67 55.7314 260.801 53.2021 259.322 51.5612C257.843 49.9203 255.314 49.789 253.673 51.2681C252.032 52.7472 251.901 55.2764 253.38 56.9174ZM149.502 151.557L256.853 54.7964L255.849 53.6822L148.498 150.443L149.502 151.557Z" fill="#0B8BAB"/>
</svg>
