<svg width="350" height="300" viewBox="0 0 350 300" fill="none" xmlns="http://www.w3.org/2000/svg">
<rect x="1" y="1" width="348" height="298" fill="white" stroke="white" stroke-width="2"/>
<path d="M18 268.25C17.5858 268.25 17.25 268.586 17.25 269C17.25 269.414 17.5858 269.75 18 269.75V268.25ZM327 269L319.5 264.67V273.33L327 269ZM18 269.75H320.25V268.25H18V269.75Z" fill="black"/>
<path d="M56.1161 266.612C55.628 267.1 55.628 267.892 56.1161 268.38C56.6043 268.868 57.3957 268.868 57.8839 268.38L56.1161 266.612ZM270.782 53.7141C273.385 56.3176 277.607 56.3176 280.21 53.7141C282.814 51.1106 282.814 46.8895 280.21 44.286C277.607 41.6825 273.385 41.6825 270.782 44.286C268.178 46.8895 268.178 51.1106 270.782 53.7141ZM57.8839 268.38L276.38 49.8839L274.612 48.1161L56.1161 266.612L57.8839 268.38Z" fill="black"/>
<path d="M226.32 27.8232C226.32 30.6715 226.776 33.0194 227.687 34.8667C228.607 36.714 230.006 37.951 231.886 38.5776L231.593 39.5176C229.209 38.891 227.382 37.54 226.112 35.4648C224.843 33.3978 224.208 30.8913 224.208 27.9453C224.208 25.0075 224.843 22.501 226.112 20.4258C227.39 18.3424 229.217 16.9875 231.593 16.3608L231.923 17.3008C230.019 17.9274 228.607 19.1522 227.687 20.9751C226.776 22.7899 226.32 25.0726 226.32 27.8232ZM236.867 24.3564L237.038 24.3931C237.485 23.8478 237.9 23.4206 238.283 23.1113C238.665 22.7939 239.076 22.5498 239.516 22.3789C239.963 22.208 240.468 22.1226 241.029 22.1226C241.501 22.1226 241.929 22.147 242.311 22.1958V25.0034H240.932C240.736 24.564 240.529 24.2466 240.309 24.0513C240.089 23.8478 239.788 23.7461 239.406 23.7461C239.113 23.7461 238.82 23.8315 238.527 24.0024C238.242 24.1733 237.965 24.4215 237.697 24.7471C237.428 25.0726 237.241 25.3778 237.135 25.6626C237.038 25.9474 236.989 26.2852 236.989 26.6758V30.9482C236.989 31.6888 237.034 32.2015 237.123 32.4863C237.213 32.763 237.359 32.9665 237.562 33.0967C237.774 33.2269 238.087 33.3286 238.502 33.4019V34H233.583V33.4019C233.892 33.3042 234.112 33.2188 234.242 33.1455C234.381 33.0723 234.499 32.9705 234.596 32.8403C234.694 32.7101 234.767 32.5107 234.816 32.2422C234.865 31.9736 234.889 31.5545 234.889 30.9849V25.6626C234.889 25.1418 234.881 24.7227 234.865 24.4053C234.848 24.0879 234.792 23.8356 234.694 23.6484C234.596 23.4531 234.446 23.3107 234.242 23.2212C234.047 23.1235 233.766 23.0422 233.4 22.9771V22.3423L236.256 22.2202H237.001L236.867 24.3564ZM244.069 31.168C244.183 31.7376 244.24 32.2992 244.24 32.8525C244.24 33.4222 244.142 33.943 243.947 34.415C243.751 34.887 243.438 35.355 243.007 35.8188C242.584 36.2909 241.998 36.8076 241.249 37.3691L240.59 36.6245C241.005 36.2339 241.306 35.8799 241.493 35.5625C241.68 35.2533 241.815 34.8993 241.896 34.5005C241.977 34.1017 242.018 33.6012 242.018 32.999C242.018 32.3805 241.99 31.7702 241.933 31.168H244.069ZM257.619 34.1953C255.828 34.1953 254.518 33.4995 253.688 32.1079C252.858 30.7082 252.443 28.576 252.443 25.7114C252.443 22.8387 252.899 20.6496 253.81 19.144C254.722 17.6385 256.056 16.8857 257.814 16.8857C259.596 16.8857 260.919 17.5734 261.781 18.9487C262.644 20.3241 263.075 22.4481 263.075 25.3208C263.075 28.283 262.619 30.5047 261.708 31.9858C260.797 33.4588 259.433 34.1953 257.619 34.1953ZM254.689 24.8569H260.817C260.703 20.1857 259.686 17.8501 257.765 17.8501C255.779 17.8501 254.754 20.1857 254.689 24.8569ZM260.829 26.1021H254.689C254.778 30.8465 255.816 33.2188 257.802 33.2188C259.787 33.2188 260.797 30.8465 260.829 26.1021ZM270.68 27.8232C270.68 25.0726 270.224 22.7899 269.313 20.9751C268.402 19.1522 266.99 17.9274 265.077 17.3008L265.407 16.3608C267.783 16.9875 269.606 18.3424 270.875 20.4258C272.153 22.501 272.792 25.0075 272.792 27.9453C272.792 30.8913 272.157 33.3978 270.888 35.4648C269.618 37.54 267.791 38.891 265.407 39.5176L265.114 38.5776C266.994 37.951 268.389 36.714 269.301 34.8667C270.22 33.0194 270.68 30.6715 270.68 27.8232Z" fill="black"/>
<path d="M96.3413 260.195C94.5509 260.195 93.2407 259.5 92.4106 258.108C91.5806 256.708 91.1655 254.576 91.1655 251.711C91.1655 248.839 91.6213 246.65 92.5327 245.144C93.4442 243.639 94.7788 242.886 96.5366 242.886C98.3188 242.886 99.6413 243.573 100.504 244.949C101.367 246.324 101.798 248.448 101.798 251.321C101.798 254.283 101.342 256.505 100.431 257.986C99.5192 259.459 98.1561 260.195 96.3413 260.195ZM93.4116 250.857H99.5396C99.4256 246.186 98.4084 243.85 96.4878 243.85C94.5021 243.85 93.4767 246.186 93.4116 250.857ZM99.5518 252.102H93.4116C93.5011 256.847 94.5387 259.219 96.5244 259.219C98.5101 259.219 99.5192 256.847 99.5518 252.102Z" fill="black"/>
<path d="M102.656 222.501C103.579 223.683 122.5 239 114.551 267.775" stroke="black" stroke-width="3" stroke-linecap="round"/>
<path d="M158.304 142.356L158.475 142.393C158.923 141.848 159.338 141.421 159.72 141.111C160.103 140.794 160.514 140.55 160.953 140.379C161.401 140.208 161.905 140.123 162.467 140.123C162.939 140.123 163.366 140.147 163.749 140.196V143.003H162.369C162.174 142.564 161.966 142.247 161.747 142.051C161.527 141.848 161.226 141.746 160.843 141.746C160.55 141.746 160.257 141.832 159.964 142.002C159.68 142.173 159.403 142.422 159.134 142.747C158.866 143.073 158.679 143.378 158.573 143.663C158.475 143.947 158.426 144.285 158.426 144.676V148.948C158.426 149.689 158.471 150.201 158.561 150.486C158.65 150.763 158.797 150.966 159 151.097C159.212 151.227 159.525 151.329 159.94 151.402V152H155.021V151.402C155.33 151.304 155.549 151.219 155.68 151.146C155.818 151.072 155.936 150.971 156.034 150.84C156.131 150.71 156.205 150.511 156.253 150.242C156.302 149.974 156.327 149.555 156.327 148.985V143.663C156.327 143.142 156.319 142.723 156.302 142.405C156.286 142.088 156.229 141.836 156.131 141.648C156.034 141.453 155.883 141.311 155.68 141.221C155.484 141.124 155.204 141.042 154.837 140.977V140.342L157.694 140.22H158.438L158.304 142.356Z" fill="black"/>
<path d="M172.281 280.52L173.741 278.667C173.898 278.465 174.025 278.27 174.123 278.083C174.22 277.888 174.269 277.69 174.269 277.488C174.269 277.316 174.205 277.173 174.078 277.061C173.95 276.949 173.752 276.866 173.482 276.814V276.264H177.155V276.814C176.87 276.896 176.578 277.057 176.279 277.297C175.987 277.536 175.627 277.922 175.201 278.454L172.876 281.306L175.437 284.754C175.803 285.248 176.133 285.626 176.425 285.888C176.717 286.15 177.009 286.337 177.301 286.45V287H172.786V286.45C173.408 286.375 173.718 286.143 173.718 285.753C173.718 285.596 173.692 285.446 173.64 285.304C173.587 285.162 173.49 284.997 173.348 284.81L171.719 282.542L169.99 284.788C169.862 284.952 169.761 285.106 169.687 285.248C169.619 285.383 169.585 285.536 169.585 285.708C169.585 285.911 169.653 286.079 169.788 286.214C169.93 286.341 170.151 286.42 170.45 286.45V287H166.699V286.45C166.946 286.36 167.167 286.248 167.362 286.113C167.564 285.978 167.766 285.806 167.968 285.596C168.178 285.379 168.451 285.065 168.788 284.653L171.124 281.755L168.732 278.476C168.403 278.027 168.14 277.701 167.946 277.499C167.751 277.297 167.571 277.143 167.407 277.039C167.242 276.934 167.077 276.859 166.913 276.814V276.264H171.315V276.814C170.723 276.904 170.428 277.136 170.428 277.51C170.428 277.682 170.465 277.855 170.54 278.027C170.622 278.199 170.746 278.39 170.911 278.6L172.281 280.52Z" fill="black"/>
<path d="M291.039 169.801C290.681 170.608 290.333 171.262 289.994 171.764C289.656 172.265 289.281 172.643 288.871 172.896C288.467 173.15 287.986 173.277 287.426 173.277C287.068 173.277 286.664 173.235 286.215 173.15V171.217H287.084C287.162 171.484 287.26 171.669 287.377 171.773C287.494 171.878 287.663 171.93 287.885 171.93C288.08 171.93 288.253 171.891 288.402 171.812C288.559 171.741 288.718 171.614 288.881 171.432C289.05 171.249 289.245 170.969 289.467 170.592C289.695 170.214 289.949 169.736 290.229 169.156L287.494 161.803C287.318 161.327 287.175 160.995 287.064 160.807C286.96 160.618 286.846 160.475 286.723 160.377C286.599 160.279 286.41 160.201 286.156 160.143V159.664H290.131V160.143C289.825 160.214 289.61 160.286 289.486 160.357C289.363 160.423 289.271 160.51 289.213 160.621C289.154 160.725 289.125 160.862 289.125 161.031C289.125 161.207 289.145 161.389 289.184 161.578C289.229 161.767 289.298 161.988 289.389 162.242L291.127 167.135L293.08 162.447C293.191 162.187 293.275 161.949 293.334 161.734C293.399 161.513 293.432 161.308 293.432 161.119C293.432 160.839 293.354 160.628 293.197 160.484C293.048 160.341 292.784 160.227 292.406 160.143V159.664H296.059V160.143C295.805 160.195 295.609 160.276 295.473 160.387C295.336 160.491 295.199 160.66 295.062 160.895C294.926 161.122 294.763 161.445 294.574 161.861L291.039 169.801Z" fill="black"/>
<line x1="275.5" y1="57" x2="266.5" y2="268" stroke="black" stroke-dasharray="2 2"/>
</svg>
