<svg width="299" height="300" viewBox="0 0 299 300" fill="none" xmlns="http://www.w3.org/2000/svg">
<rect x="1" y="1" width="297" height="298" fill="white" stroke="white" stroke-width="2"/>
<path d="M138.5 7.0181L135.613 12.0181H141.387L138.5 7.0181ZM139 187.018V11.5181H138V187.018H139Z" fill="black"/>
<path d="M291 187L286 184.113V189.887L291 187ZM286.5 186.5L138 186.5V187.5L286.5 187.5V186.5Z" fill="black"/>
<path d="M33 280L38.661 278.866L34.8484 274.53L33 280ZM137.998 187.002L36.0491 276.653L36.7094 277.404L138.658 187.753L137.998 187.002Z" fill="black"/>
<line x1="138" y1="78.5" x2="241" y2="78.5" stroke="#FFC702" stroke-dasharray="2 2"/>
<line x1="60" y1="148.5" x2="163" y2="148.5" stroke="#FFC702" stroke-dasharray="2 2"/>
<line x1="61" y1="256.5" x2="164" y2="256.5" stroke="#FFC702" stroke-dasharray="2 2"/>
<line x1="241" y1="81.5" x2="241" y2="184.5" stroke="#FFC702" stroke-dasharray="2 2"/>
<line x1="164.5" y1="152" x2="164.5" y2="255" stroke="#FFC702" stroke-dasharray="2 2"/>
<line x1="61.5" y1="148" x2="61.5" y2="251" stroke="#FFC702" stroke-dasharray="2 2"/>
<line x1="240.606" y1="188.411" x2="164.062" y2="257.332" stroke="#FFC702" stroke-dasharray="2 2"/>
<line x1="239.879" y1="81.3716" x2="163.335" y2="150.292" stroke="#FFC702" stroke-dasharray="2 2"/>
<line x1="137.879" y1="79.3716" x2="61.3346" y2="148.292" stroke="#FFC702" stroke-dasharray="2 2"/>
<circle cx="164" cy="149" r="4" fill="#0B8BAB"/>
<path d="M151.756 20.3008V22H147.244V21.7129L150.455 16.873H148.867C148.672 16.873 148.518 16.9082 148.404 16.9785C148.291 17.0488 148.184 17.166 148.082 17.3301C147.98 17.4941 147.883 17.7148 147.789 17.9922H147.279V16.3984H151.721V16.6914L148.516 21.5254H150.057C150.26 21.5254 150.412 21.5098 150.514 21.4785C150.615 21.4473 150.703 21.3984 150.777 21.332C150.852 21.2617 150.924 21.1523 150.994 21.0039C151.064 20.8555 151.148 20.6211 151.246 20.3008H151.756Z" fill="black"/>
<path d="M278.523 200.48C278.309 200.965 278.1 201.357 277.896 201.658C277.693 201.959 277.469 202.186 277.223 202.338C276.98 202.49 276.691 202.566 276.355 202.566C276.141 202.566 275.898 202.541 275.629 202.49V201.33H276.15C276.197 201.49 276.256 201.602 276.326 201.664C276.396 201.727 276.498 201.758 276.631 201.758C276.748 201.758 276.852 201.734 276.941 201.688C277.035 201.645 277.131 201.568 277.229 201.459C277.33 201.35 277.447 201.182 277.58 200.955C277.717 200.729 277.869 200.441 278.037 200.094L276.396 195.682C276.291 195.396 276.205 195.197 276.139 195.084C276.076 194.971 276.008 194.885 275.934 194.826C275.859 194.768 275.746 194.721 275.594 194.686V194.398H277.979V194.686C277.795 194.729 277.666 194.771 277.592 194.814C277.518 194.854 277.463 194.906 277.428 194.973C277.393 195.035 277.375 195.117 277.375 195.219C277.375 195.324 277.387 195.434 277.41 195.547C277.438 195.66 277.479 195.793 277.533 195.945L278.576 198.881L279.748 196.068C279.814 195.912 279.865 195.77 279.9 195.641C279.939 195.508 279.959 195.385 279.959 195.271C279.959 195.104 279.912 194.977 279.818 194.891C279.729 194.805 279.57 194.736 279.344 194.686V194.398H281.535V194.686C281.383 194.717 281.266 194.766 281.184 194.832C281.102 194.895 281.02 194.996 280.938 195.137C280.855 195.273 280.758 195.467 280.645 195.717L278.523 200.48Z" fill="black"/>
<path d="M49.6465 276.619L50.4082 275.652C50.4902 275.547 50.5566 275.445 50.6074 275.348C50.6582 275.246 50.6836 275.143 50.6836 275.037C50.6836 274.947 50.6504 274.873 50.584 274.814C50.5176 274.756 50.4141 274.713 50.2734 274.686V274.398H52.1895V274.686C52.041 274.729 51.8887 274.812 51.7324 274.938C51.5801 275.062 51.3926 275.264 51.1699 275.541L49.957 277.029L51.293 278.828C51.4844 279.086 51.6562 279.283 51.8086 279.42C51.9609 279.557 52.1133 279.654 52.2656 279.713V280H49.9102V279.713C50.2344 279.674 50.3965 279.553 50.3965 279.35C50.3965 279.268 50.3828 279.189 50.3555 279.115C50.3281 279.041 50.2773 278.955 50.2031 278.857L49.3535 277.674L48.4512 278.846C48.3848 278.932 48.332 279.012 48.293 279.086C48.2578 279.156 48.2402 279.236 48.2402 279.326C48.2402 279.432 48.2754 279.52 48.3457 279.59C48.4199 279.656 48.5352 279.697 48.6914 279.713V280H46.7344V279.713C46.8633 279.666 46.9785 279.607 47.0801 279.537C47.1855 279.467 47.291 279.377 47.3965 279.268C47.5059 279.154 47.6484 278.99 47.8242 278.775L49.043 277.264L47.7949 275.553C47.623 275.318 47.4863 275.148 47.3848 275.043C47.2832 274.938 47.1895 274.857 47.1035 274.803C47.0176 274.748 46.9316 274.709 46.8457 274.686V274.398H49.1426V274.686C48.834 274.732 48.6797 274.854 48.6797 275.049C48.6797 275.139 48.6992 275.229 48.7383 275.318C48.7812 275.408 48.8457 275.508 48.9316 275.617L49.6465 276.619Z" fill="black"/>
<path d="M139.296 138.201C139.332 139.226 139.525 140.065 139.876 140.718C140.23 141.371 140.75 141.799 141.434 142.001L141.34 142.342C140.474 142.147 139.8 141.684 139.317 140.953C138.835 140.225 138.575 139.332 138.538 138.272C138.501 137.215 138.698 136.305 139.128 135.542C139.562 134.777 140.202 134.266 141.049 134.011L141.18 134.345C140.502 134.594 140.01 135.053 139.702 135.72C139.397 136.385 139.261 137.212 139.296 138.201ZM143.752 137.733L144.297 136.989C144.356 136.908 144.403 136.83 144.439 136.755C144.474 136.678 144.49 136.6 144.488 136.52C144.485 136.453 144.458 136.398 144.407 136.356C144.356 136.314 144.277 136.285 144.171 136.268L144.163 136.053L145.6 136.002L145.607 136.218C145.497 136.254 145.385 136.321 145.271 136.418C145.16 136.516 145.025 136.672 144.865 136.885L143.995 138.033L145.044 139.346C145.194 139.534 145.328 139.678 145.446 139.776C145.563 139.875 145.68 139.944 145.796 139.984L145.803 140.199L144.038 140.261L144.03 140.045C144.272 140.008 144.391 139.913 144.385 139.76C144.383 139.699 144.371 139.641 144.348 139.586C144.326 139.531 144.286 139.468 144.227 139.397L143.56 138.532L142.914 139.434C142.866 139.5 142.829 139.561 142.802 139.618C142.777 139.671 142.766 139.732 142.768 139.799C142.771 139.878 142.8 139.943 142.854 139.994C142.912 140.042 142.999 140.07 143.117 140.077L143.124 140.293L141.657 140.344L141.65 140.129C141.745 140.09 141.83 140.043 141.904 139.988C141.982 139.932 142.058 139.862 142.134 139.777C142.213 139.69 142.316 139.563 142.442 139.397L143.316 138.232L142.336 136.983C142.201 136.811 142.094 136.688 142.015 136.611C141.936 136.535 141.864 136.477 141.798 136.439C141.732 136.4 141.667 136.373 141.602 136.357L141.594 136.142L143.316 136.082L143.323 136.297C143.093 136.341 142.981 136.435 142.986 136.582C142.988 136.649 143.005 136.716 143.037 136.782C143.071 136.848 143.122 136.921 143.19 137.001L143.752 137.733ZM147.226 139.129C147.274 139.333 147.301 139.534 147.308 139.733C147.316 139.938 147.287 140.127 147.223 140.299C147.158 140.471 147.051 140.643 146.902 140.816C146.756 140.991 146.551 141.184 146.289 141.396L146.043 141.136C146.187 140.99 146.291 140.859 146.354 140.743C146.418 140.629 146.462 140.5 146.486 140.355C146.51 140.211 146.519 140.03 146.511 139.814C146.503 139.591 146.485 139.372 146.457 139.156L147.226 139.129ZM152.03 140.342C151.882 140.711 151.736 141.011 151.591 141.241C151.447 141.472 151.284 141.648 151.104 141.768C150.926 141.889 150.712 141.954 150.46 141.962C150.299 141.968 150.117 141.955 149.913 141.924L149.883 141.055L150.274 141.041C150.313 141.16 150.36 141.242 150.414 141.287C150.469 141.332 150.546 141.353 150.645 141.349C150.733 141.346 150.81 141.326 150.876 141.288C150.945 141.254 151.015 141.194 151.085 141.109C151.159 141.025 151.242 140.896 151.336 140.723C151.432 140.549 151.539 140.33 151.656 140.065L150.31 136.801C150.224 136.59 150.154 136.443 150.102 136.36C150.052 136.276 149.998 136.214 149.941 136.172C149.884 136.13 149.798 136.098 149.683 136.075L149.675 135.86L151.463 135.798L151.47 136.013C151.334 136.05 151.238 136.085 151.184 136.12C151.129 136.151 151.089 136.192 151.065 136.242C151.04 136.29 151.029 136.352 151.032 136.428C151.035 136.507 151.046 136.589 151.067 136.673C151.09 136.757 151.124 136.856 151.169 136.969L152.028 139.142L152.833 137.003C152.878 136.884 152.913 136.776 152.936 136.678C152.962 136.578 152.973 136.485 152.97 136.4C152.966 136.274 152.927 136.18 152.855 136.118C152.785 136.056 152.665 136.009 152.493 135.977L152.486 135.762L154.129 135.705L154.136 135.92C154.023 135.947 153.936 135.987 153.876 136.039C153.817 136.088 153.758 136.166 153.7 136.274C153.642 136.378 153.574 136.526 153.495 136.716L152.03 140.342ZM154.841 138.863C154.889 139.067 154.917 139.268 154.924 139.467C154.931 139.672 154.902 139.861 154.838 140.033C154.774 140.205 154.667 140.378 154.518 140.55C154.371 140.725 154.167 140.918 153.905 141.13L153.658 140.87C153.803 140.724 153.906 140.593 153.97 140.477C154.033 140.363 154.077 140.234 154.101 140.089C154.126 139.945 154.134 139.764 154.126 139.548C154.119 139.325 154.101 139.106 154.073 138.89L154.841 138.863ZM161.042 138.392L161.087 139.665L157.705 139.783L157.698 139.568L159.978 135.856L158.788 135.898C158.641 135.903 158.526 135.933 158.443 135.989C158.36 136.045 158.283 136.135 158.211 136.261C158.139 136.387 158.072 136.555 158.009 136.765L157.627 136.778L157.585 135.584L160.914 135.468L160.922 135.687L158.646 139.394L159.801 139.354C159.953 139.349 160.067 139.333 160.142 139.307C160.217 139.281 160.282 139.242 160.336 139.19C160.39 139.136 160.441 139.052 160.49 138.939C160.539 138.825 160.596 138.648 160.66 138.405L161.042 138.392ZM163.548 137.354C163.513 136.365 163.321 135.549 162.97 134.908C162.619 134.263 162.096 133.84 161.4 133.639L161.507 133.297C162.369 133.492 163.042 133.957 163.525 134.69C164.011 135.421 164.272 136.315 164.309 137.372C164.346 138.432 164.149 139.341 163.718 140.101C163.288 140.864 162.647 141.373 161.797 141.628L161.68 141.293C162.349 141.044 162.835 140.582 163.14 139.906C163.448 139.23 163.584 138.379 163.548 137.354Z" fill="black"/>
</svg>
