<svg width="299" height="170" viewBox="0 0 299 170" fill="none" xmlns="http://www.w3.org/2000/svg">
<rect x="1" y="1" width="297" height="168" fill="white" stroke="white" stroke-width="2"/>
<path d="M4 150.3L11 154.341V146.259L4 150.3ZM295 150.3L288 146.259V154.341L295 150.3ZM10.3 151H288.7V149.6H10.3V151Z" fill="black"/>
<path d="M149.7 5L145.629 11.9828L153.712 12.0171L149.7 5ZM148.973 11.297L148.3 169.997L149.7 170.003L150.373 11.3029L148.973 11.297Z" fill="black"/>
<path d="M171.424 120.094C170.564 120.094 169.936 119.76 169.537 119.092C169.139 118.42 168.939 117.396 168.939 116.021C168.939 114.643 169.158 113.592 169.596 112.869C170.033 112.146 170.674 111.785 171.518 111.785C172.373 111.785 173.008 112.115 173.422 112.775C173.836 113.436 174.043 114.455 174.043 115.834C174.043 117.256 173.824 118.322 173.387 119.033C172.949 119.74 172.295 120.094 171.424 120.094ZM170.018 115.611H172.959C172.904 113.369 172.416 112.248 171.494 112.248C170.541 112.248 170.049 113.369 170.018 115.611ZM172.965 116.209H170.018C170.061 118.486 170.559 119.625 171.512 119.625C172.465 119.625 172.949 118.486 172.965 116.209Z" fill="black"/>
<path d="M82.166 102.371L82.248 102.389C82.4629 102.127 82.6621 101.922 82.8457 101.773C83.0293 101.621 83.2266 101.504 83.4375 101.422C83.6523 101.34 83.8945 101.299 84.1641 101.299C84.3906 101.299 84.5957 101.311 84.7793 101.334V102.682H84.1172C84.0234 102.471 83.9238 102.318 83.8184 102.225C83.7129 102.127 83.5684 102.078 83.3848 102.078C83.2441 102.078 83.1035 102.119 82.9629 102.201C82.8262 102.283 82.6934 102.402 82.5645 102.559C82.4355 102.715 82.3457 102.861 82.2949 102.998C82.248 103.135 82.2246 103.297 82.2246 103.484V105.535C82.2246 105.891 82.2461 106.137 82.2891 106.273C82.332 106.406 82.4023 106.504 82.5 106.566C82.6016 106.629 82.752 106.678 82.9512 106.713V107H80.5898V106.713C80.7383 106.666 80.8438 106.625 80.9062 106.59C80.9727 106.555 81.0293 106.506 81.0762 106.443C81.123 106.381 81.1582 106.285 81.1816 106.156C81.2051 106.027 81.2168 105.826 81.2168 105.553V102.998C81.2168 102.748 81.2129 102.547 81.2051 102.395C81.1973 102.242 81.1699 102.121 81.123 102.031C81.0762 101.938 81.0039 101.869 80.9062 101.826C80.8125 101.779 80.6777 101.74 80.502 101.709V101.404L81.873 101.346H82.2305L82.166 102.371Z" fill="black"/>
<path d="M22.9863 44.3008V46H18.4746V45.7129L21.6855 40.873H20.0977C19.9023 40.873 19.748 40.9082 19.6348 40.9785C19.5215 41.0488 19.4141 41.166 19.3125 41.3301C19.2109 41.4941 19.1133 41.7148 19.0195 41.9922H18.5098V40.3984H22.9512V40.6914L19.7461 45.5254H21.2871C21.4902 45.5254 21.6426 45.5098 21.7441 45.4785C21.8457 45.4473 21.9336 45.3984 22.0078 45.332C22.082 45.2617 22.1543 45.1523 22.2246 45.0039C22.2949 44.8555 22.3789 44.6211 22.4766 44.3008H22.9863ZM26.9824 41.7461V40.9668H34.2012V41.7461H26.9824ZM26.9824 44.1777V43.3984H34.2012V44.1777H26.9824ZM37.2246 41.3711L37.3066 41.3887C37.5215 41.127 37.7207 40.9219 37.9043 40.7734C38.0879 40.6211 38.2852 40.5039 38.4961 40.4219C38.7109 40.3398 38.9531 40.2988 39.2227 40.2988C39.4492 40.2988 39.6543 40.3105 39.8379 40.334V41.6816H39.1758C39.082 41.4707 38.9824 41.3184 38.877 41.2246C38.7715 41.127 38.627 41.0781 38.4434 41.0781C38.3027 41.0781 38.1621 41.1191 38.0215 41.2012C37.8848 41.2832 37.752 41.4023 37.623 41.5586C37.4941 41.7148 37.4043 41.8613 37.3535 41.998C37.3066 42.1348 37.2832 42.2969 37.2832 42.4844V44.5352C37.2832 44.8906 37.3047 45.1367 37.3477 45.2734C37.3906 45.4062 37.4609 45.5039 37.5586 45.5664C37.6602 45.6289 37.8105 45.6777 38.0098 45.7129V46H35.6484V45.7129C35.7969 45.666 35.9023 45.625 35.9648 45.5898C36.0312 45.5547 36.0879 45.5059 36.1348 45.4434C36.1816 45.3809 36.2168 45.2852 36.2402 45.1562C36.2637 45.0273 36.2754 44.8262 36.2754 44.5527V41.998C36.2754 41.748 36.2715 41.5469 36.2637 41.3945C36.2559 41.2422 36.2285 41.1211 36.1816 41.0312C36.1348 40.9375 36.0625 40.8691 35.9648 40.8262C35.8711 40.7793 35.7363 40.7402 35.5605 40.709V40.4043L36.9316 40.3457H37.2891L37.2246 41.3711ZM44.7598 43.0352C44.7598 44.4023 44.9785 45.5293 45.416 46.416C45.8574 47.3027 46.5293 47.8965 47.4316 48.1973L47.291 48.6484C46.1465 48.3477 45.2695 47.6992 44.6602 46.7031C44.0508 45.7109 43.7461 44.5078 43.7461 43.0938C43.7461 41.6836 44.0508 40.4805 44.6602 39.4844C45.2734 38.4844 46.1504 37.834 47.291 37.5332L47.4492 37.9844C46.5352 38.2852 45.8574 38.873 45.416 39.748C44.9785 40.6191 44.7598 41.7148 44.7598 43.0352ZM52.6055 40.5332V41.7578H51.8613C51.7949 41.5039 51.7129 41.3047 51.6152 41.1602C51.5176 41.0117 51.4043 40.9082 51.2754 40.8496C51.1465 40.791 50.9863 40.7617 50.7949 40.7617C50.5215 40.7617 50.2793 40.8496 50.0684 41.0254C49.8574 41.2012 49.6895 41.4688 49.5645 41.8281C49.4434 42.1875 49.3828 42.627 49.3828 43.1465C49.3828 43.4785 49.4062 43.7832 49.4531 44.0605C49.5 44.334 49.5801 44.5684 49.6934 44.7637C49.8066 44.959 49.957 45.1113 50.1445 45.2207C50.332 45.3301 50.5645 45.3848 50.8418 45.3848C51.1113 45.3848 51.3613 45.332 51.5918 45.2266C51.8262 45.1211 52.0684 44.9355 52.3184 44.6699L52.6523 45.0566C52.4531 45.2754 52.2773 45.4453 52.125 45.5664C51.9727 45.6836 51.8086 45.7832 51.6328 45.8652C51.4609 45.9434 51.2891 46 51.1172 46.0352C50.9492 46.0742 50.7656 46.0938 50.5664 46.0938C49.8281 46.0938 49.2637 45.8496 48.873 45.3613C48.4824 44.8691 48.2871 44.1602 48.2871 43.2344C48.2871 42.6562 48.3965 42.1445 48.6152 41.6992C48.834 41.25 49.1406 40.9043 49.5352 40.6621C49.9297 40.4199 50.3848 40.2988 50.9004 40.2988C51.2207 40.2988 51.5156 40.3184 51.7852 40.3574C52.0586 40.3926 52.332 40.4512 52.6055 40.5332ZM56.0859 46.0938C55.2734 46.0938 54.6523 45.8555 54.2227 45.3789C53.7969 44.8984 53.584 44.1895 53.584 43.252C53.584 42.6074 53.6953 42.0625 53.918 41.6172C54.1445 41.1719 54.4531 40.8418 54.8438 40.627C55.2344 40.4082 55.6797 40.2988 56.1797 40.2988C57.0156 40.2988 57.6484 40.543 58.0781 41.0312C58.5078 41.5156 58.7227 42.2129 58.7227 43.123C58.7227 43.7715 58.6152 44.3184 58.4004 44.7637C58.1855 45.209 57.8809 45.543 57.4863 45.7656C57.0918 45.9844 56.625 46.0938 56.0859 46.0938ZM54.6914 43.1289C54.6914 43.9336 54.8184 44.5527 55.0723 44.9863C55.3301 45.416 55.6973 45.6309 56.1738 45.6309C56.4355 45.6309 56.6582 45.5684 56.8418 45.4434C57.0254 45.3145 57.1738 45.1426 57.2871 44.9277C57.4043 44.7129 57.4883 44.4648 57.5391 44.1836C57.5898 43.8984 57.6152 43.6016 57.6152 43.293C57.6152 42.7188 57.5508 42.2422 57.4219 41.8633C57.2969 41.4844 57.125 41.207 56.9062 41.0312C56.6875 40.8516 56.4375 40.7617 56.1562 40.7617C55.6836 40.7617 55.3203 40.9668 55.0664 41.377C54.8164 41.7871 54.6914 42.3711 54.6914 43.1289ZM63.8379 41.6816H63.2754C63.1895 41.4473 63.0879 41.2637 62.9707 41.1309C62.8535 40.9941 62.7207 40.8984 62.5723 40.8438C62.4238 40.7891 62.2422 40.7617 62.0273 40.7617C61.7148 40.7617 61.4648 40.8359 61.2773 40.9844C61.0938 41.1289 61.002 41.3281 61.002 41.582C61.002 41.7617 61.0391 41.9102 61.1133 42.0273C61.1875 42.1445 61.3027 42.2539 61.459 42.3555C61.6152 42.457 61.8906 42.5918 62.2852 42.7598C62.6836 42.9316 62.9902 43.0898 63.2051 43.2344C63.4238 43.3789 63.5938 43.5469 63.7148 43.7383C63.8398 43.9297 63.9023 44.1582 63.9023 44.4238C63.9023 44.7324 63.8496 44.9922 63.7441 45.2031C63.6387 45.4141 63.4902 45.5859 63.2988 45.7188C63.1074 45.8516 62.8789 45.9473 62.6133 46.0059C62.3516 46.0645 62.0645 46.0938 61.752 46.0938C61.4238 46.0938 61.1055 46.0684 60.7969 46.0176C60.4883 45.9707 60.1875 45.9082 59.8945 45.8301V44.6055H60.4688C60.5742 44.9648 60.7305 45.2266 60.9375 45.3906C61.1445 45.5508 61.4297 45.6309 61.793 45.6309C61.9336 45.6309 62.0703 45.6172 62.2031 45.5898C62.3398 45.5586 62.4609 45.5098 62.5664 45.4434C62.6719 45.373 62.7559 45.2793 62.8184 45.1621C62.8809 45.0449 62.9121 44.8984 62.9121 44.7227C62.9121 44.5234 62.873 44.3613 62.7949 44.2363C62.7168 44.1113 62.5957 43.998 62.4316 43.8965C62.2676 43.791 61.9785 43.6504 61.5645 43.4746C61.209 43.3262 60.9238 43.1816 60.709 43.041C60.4941 42.9004 60.3242 42.7344 60.1992 42.543C60.0781 42.3516 60.0176 42.125 60.0176 41.8633C60.0176 41.543 60.1035 41.2656 60.2754 41.0312C60.4512 40.793 60.7031 40.6113 61.0312 40.4863C61.3594 40.3613 61.7441 40.2988 62.1855 40.2988C62.4434 40.2988 62.6914 40.3125 62.9297 40.3398C63.1719 40.3633 63.4746 40.4121 63.8379 40.4863V41.6816ZM66.5684 43.0352C66.5684 44.4023 66.7871 45.5293 67.2246 46.416C67.666 47.3027 68.3379 47.8965 69.2402 48.1973L69.0996 48.6484C67.9551 48.3477 67.0781 47.6992 66.4688 46.7031C65.8594 45.7109 65.5547 44.5078 65.5547 43.0938C65.5547 41.6836 65.8594 40.4805 66.4688 39.4844C67.082 38.4844 67.959 37.834 69.0996 37.5332L69.2578 37.9844C68.3438 38.2852 67.666 38.873 67.2246 39.748C66.7871 40.6191 66.5684 41.7148 66.5684 43.0352ZM72.6855 46.0938C71.8262 46.0938 71.1973 45.7598 70.7988 45.0918C70.4004 44.4199 70.2012 43.3965 70.2012 42.0215C70.2012 40.6426 70.4199 39.5918 70.8574 38.8691C71.2949 38.1465 71.9355 37.7852 72.7793 37.7852C73.6348 37.7852 74.2695 38.1152 74.6836 38.7754C75.0977 39.4355 75.3047 40.4551 75.3047 41.834C75.3047 43.2559 75.0859 44.3223 74.6484 45.0332C74.2109 45.7402 73.5566 46.0938 72.6855 46.0938ZM71.2793 41.6113H74.2207C74.166 39.3691 73.6777 38.248 72.7559 38.248C71.8027 38.248 71.3105 39.3691 71.2793 41.6113ZM74.2266 42.209H71.2793C71.3223 44.4863 71.8203 45.625 72.7734 45.625C73.7266 45.625 74.2109 44.4863 74.2266 42.209ZM78.9551 43.0352C78.9551 41.7148 78.7363 40.6191 78.2988 39.748C77.8613 38.873 77.1836 38.2852 76.2656 37.9844L76.4238 37.5332C77.5645 37.834 78.4395 38.4844 79.0488 39.4844C79.6621 40.4805 79.9688 41.6836 79.9688 43.0938C79.9688 44.5078 79.6641 45.7109 79.0547 46.7031C78.4453 47.6992 77.5684 48.3477 76.4238 48.6484L76.2832 48.1973C77.1855 47.8965 77.8555 47.3027 78.293 46.416C78.7344 45.5293 78.9551 44.4023 78.9551 43.0352ZM88.5703 42.959V46.334H87.7383V42.959H84.5449V42.1797H87.7383V38.8047H88.5703V42.1797H91.7637V42.959H88.5703ZM99.7793 41.6816H99.2168C99.1309 41.4473 99.0293 41.2637 98.9121 41.1309C98.7949 40.9941 98.6621 40.8984 98.5137 40.8438C98.3652 40.7891 98.1836 40.7617 97.9688 40.7617C97.6562 40.7617 97.4062 40.8359 97.2188 40.9844C97.0352 41.1289 96.9434 41.3281 96.9434 41.582C96.9434 41.7617 96.9805 41.9102 97.0547 42.0273C97.1289 42.1445 97.2441 42.2539 97.4004 42.3555C97.5566 42.457 97.832 42.5918 98.2266 42.7598C98.625 42.9316 98.9316 43.0898 99.1465 43.2344C99.3652 43.3789 99.5352 43.5469 99.6562 43.7383C99.7812 43.9297 99.8438 44.1582 99.8438 44.4238C99.8438 44.7324 99.791 44.9922 99.6855 45.2031C99.5801 45.4141 99.4316 45.5859 99.2402 45.7188C99.0488 45.8516 98.8203 45.9473 98.5547 46.0059C98.293 46.0645 98.0059 46.0938 97.6934 46.0938C97.3652 46.0938 97.0469 46.0684 96.7383 46.0176C96.4297 45.9707 96.1289 45.9082 95.8359 45.8301V44.6055H96.4102C96.5156 44.9648 96.6719 45.2266 96.8789 45.3906C97.0859 45.5508 97.3711 45.6309 97.7344 45.6309C97.875 45.6309 98.0117 45.6172 98.1445 45.5898C98.2812 45.5586 98.4023 45.5098 98.5078 45.4434C98.6133 45.373 98.6973 45.2793 98.7598 45.1621C98.8223 45.0449 98.8535 44.8984 98.8535 44.7227C98.8535 44.5234 98.8145 44.3613 98.7363 44.2363C98.6582 44.1113 98.5371 43.998 98.373 43.8965C98.209 43.791 97.9199 43.6504 97.5059 43.4746C97.1504 43.3262 96.8652 43.1816 96.6504 43.041C96.4355 42.9004 96.2656 42.7344 96.1406 42.543C96.0195 42.3516 95.959 42.125 95.959 41.8633C95.959 41.543 96.0449 41.2656 96.2168 41.0312C96.3926 40.793 96.6445 40.6113 96.9727 40.4863C97.3008 40.3613 97.6855 40.2988 98.127 40.2988C98.3848 40.2988 98.6328 40.3125 98.8711 40.3398C99.1133 40.3633 99.416 40.4121 99.7793 40.4863V41.6816ZM105.691 45.0039C105.441 45.2656 105.211 45.4707 105 45.6191C104.793 45.7676 104.564 45.8848 104.314 45.9707C104.064 46.0527 103.789 46.0938 103.488 46.0938C102.684 46.0938 102.076 45.8535 101.666 45.373C101.256 44.8887 101.051 44.1758 101.051 43.2344C101.051 42.6523 101.154 42.1387 101.361 41.6934C101.572 41.248 101.871 40.9043 102.258 40.6621C102.645 40.4199 103.09 40.2988 103.594 40.2988C103.988 40.2988 104.324 40.3613 104.602 40.4863C104.879 40.6113 105.1 40.7832 105.264 41.002C105.432 41.2168 105.561 41.4902 105.65 41.8223C105.744 42.1504 105.797 42.5801 105.809 43.1113H102.117V43.2168C102.117 43.6777 102.168 44.0664 102.27 44.3828C102.375 44.6953 102.545 44.9414 102.779 45.1211C103.018 45.2969 103.326 45.3848 103.705 45.3848C104.025 45.3848 104.312 45.3262 104.566 45.209C104.824 45.0879 105.08 44.8926 105.334 44.623L105.691 45.0039ZM104.707 42.625C104.684 42.2031 104.631 41.8594 104.549 41.5938C104.467 41.3242 104.344 41.1191 104.18 40.9785C104.016 40.834 103.801 40.7617 103.535 40.7617C103.133 40.7617 102.811 40.9238 102.568 41.248C102.33 41.5684 102.189 42.0273 102.146 42.625H104.707ZM112.576 46H110.268V45.7129C110.42 45.666 110.529 45.625 110.596 45.5898C110.662 45.5547 110.717 45.5059 110.76 45.4434C110.807 45.3809 110.842 45.2852 110.865 45.1562C110.893 45.0234 110.906 44.8242 110.906 44.5586V43.0234C110.906 42.75 110.898 42.502 110.883 42.2793C110.867 42.0566 110.84 41.875 110.801 41.7344C110.766 41.5898 110.721 41.4785 110.666 41.4004C110.615 41.3184 110.553 41.25 110.479 41.1953C110.408 41.1367 110.326 41.0918 110.232 41.0605C110.139 41.0254 110.016 41.0078 109.863 41.0078C109.711 41.0078 109.566 41.0391 109.43 41.1016C109.293 41.1602 109.143 41.2637 108.979 41.4121C108.814 41.5605 108.695 41.707 108.621 41.8516C108.547 41.9961 108.51 42.1621 108.51 42.3496V44.5352C108.51 44.8711 108.525 45.1055 108.557 45.2383C108.588 45.3672 108.646 45.4668 108.732 45.5371C108.822 45.6035 108.967 45.6621 109.166 45.7129V46H106.869V45.7129C107.021 45.666 107.129 45.625 107.191 45.5898C107.258 45.5547 107.312 45.5059 107.355 45.4434C107.402 45.3809 107.438 45.2852 107.461 45.1562C107.488 45.0273 107.502 44.8262 107.502 44.5527V41.998C107.502 41.748 107.498 41.5469 107.49 41.3945C107.482 41.2422 107.455 41.1211 107.408 41.0312C107.361 40.9375 107.289 40.8691 107.191 40.8262C107.098 40.7793 106.963 40.7402 106.787 40.709V40.3984L108.158 40.3457H108.516L108.451 41.3008L108.533 41.3242C108.822 41.0312 109.055 40.8223 109.23 40.6973C109.41 40.5723 109.59 40.4766 109.77 40.4102C109.953 40.3398 110.146 40.3047 110.35 40.3047C110.561 40.3047 110.748 40.3301 110.912 40.3809C111.08 40.4277 111.227 40.502 111.352 40.6035C111.48 40.7051 111.586 40.832 111.668 40.9844C111.75 41.1328 111.811 41.3125 111.85 41.5234C111.893 41.7344 111.914 42.002 111.914 42.3262V44.5352C111.914 44.8047 111.922 45 111.938 45.1211C111.953 45.2422 111.98 45.3359 112.02 45.4023C112.059 45.4688 112.115 45.5254 112.189 45.5723C112.264 45.6152 112.393 45.6621 112.576 45.7129V46ZM115.072 43.0352C115.072 44.4023 115.291 45.5293 115.729 46.416C116.17 47.3027 116.842 47.8965 117.744 48.1973L117.604 48.6484C116.459 48.3477 115.582 47.6992 114.973 46.7031C114.363 45.7109 114.059 44.5078 114.059 43.0938C114.059 41.6836 114.363 40.4805 114.973 39.4844C115.586 38.4844 116.463 37.834 117.604 37.5332L117.762 37.9844C116.848 38.2852 116.17 38.873 115.729 39.748C115.291 40.6191 115.072 41.7148 115.072 43.0352ZM121.189 46.0938C120.33 46.0938 119.701 45.7598 119.303 45.0918C118.904 44.4199 118.705 43.3965 118.705 42.0215C118.705 40.6426 118.924 39.5918 119.361 38.8691C119.799 38.1465 120.439 37.7852 121.283 37.7852C122.139 37.7852 122.773 38.1152 123.188 38.7754C123.602 39.4355 123.809 40.4551 123.809 41.834C123.809 43.2559 123.59 44.3223 123.152 45.0332C122.715 45.7402 122.061 46.0938 121.189 46.0938ZM119.783 41.6113H122.725C122.67 39.3691 122.182 38.248 121.26 38.248C120.307 38.248 119.814 39.3691 119.783 41.6113ZM122.73 42.209H119.783C119.826 44.4863 120.324 45.625 121.277 45.625C122.23 45.625 122.715 44.4863 122.73 42.209ZM127.459 43.0352C127.459 41.7148 127.24 40.6191 126.803 39.748C126.365 38.873 125.688 38.2852 124.77 37.9844L124.928 37.5332C126.068 37.834 126.943 38.4844 127.553 39.4844C128.166 40.4805 128.473 41.6836 128.473 43.0938C128.473 44.5078 128.168 45.7109 127.559 46.7031C126.949 47.6992 126.072 48.3477 124.928 48.6484L124.787 48.1973C125.689 47.8965 126.359 47.3027 126.797 46.416C127.238 45.5293 127.459 44.4023 127.459 43.0352ZM132.809 38.1016L132.539 39.2383H131.502L131.771 38.1016H132.809ZM131.361 44.5352C131.318 44.7344 131.291 44.8809 131.279 44.9746C131.268 45.0645 131.262 45.1406 131.262 45.2031C131.262 45.3203 131.281 45.4121 131.32 45.4785C131.359 45.5449 131.42 45.5957 131.502 45.6309C131.584 45.666 131.719 45.6934 131.906 45.7129L131.854 46H130.037L130.922 42.0508C130.973 41.8242 131.008 41.6445 131.027 41.5117C131.047 41.375 131.057 41.2617 131.057 41.1719C131.057 41.0586 131.039 40.9707 131.004 40.9082C130.973 40.8457 130.918 40.7988 130.84 40.7676C130.762 40.7363 130.627 40.7168 130.436 40.709L130.5 40.3984L131.93 40.3457H132.275L131.361 44.5352ZM138.346 43.0352C138.346 41.7148 138.127 40.6191 137.689 39.748C137.252 38.873 136.574 38.2852 135.656 37.9844L135.814 37.5332C136.955 37.834 137.83 38.4844 138.439 39.4844C139.053 40.4805 139.359 41.6836 139.359 43.0938C139.359 44.5078 139.055 45.7109 138.445 46.7031C137.836 47.6992 136.959 48.3477 135.814 48.6484L135.674 48.1973C136.576 47.8965 137.246 47.3027 137.684 46.416C138.125 45.5293 138.346 44.4023 138.346 43.0352Z" fill="black"/>
<path d="M152.23 152.652C153.68 150.984 153.503 148.458 151.836 147.009C150.168 145.559 147.642 145.736 146.193 147.403C144.743 149.07 144.92 151.597 146.587 153.046C148.254 154.496 150.781 154.319 152.23 152.652ZM43.1575 57.8361C44.6068 56.1688 44.4301 53.6423 42.7628 52.193C41.0956 50.7437 38.5691 50.9204 37.1198 52.5876C35.6704 54.2549 35.8471 56.7814 37.5144 58.2307C39.1816 59.68 41.7081 59.5034 43.1575 57.8361ZM149.703 149.461L40.6307 54.6458L39.6466 55.7779L148.719 150.593L149.703 149.461Z" fill="#0B8BAB"/>
<path d="M182 150.5C179.5 124.5 155.5 102 123 126.5" stroke="black"/>
</svg>
