<svg width="299" height="300" viewBox="0 0 299 300" fill="none" xmlns="http://www.w3.org/2000/svg">
<rect x="1" y="1" width="297" height="298" fill="white" stroke="white" stroke-width="2"/>
<path d="M3 150.3L10 154.341V146.259L3 150.3ZM294 150.3L287 146.259V154.341L294 150.3ZM9.3 151H287.7V149.6H9.3V151Z" fill="black"/>
<path d="M148.7 5L144.658 12H152.741L148.7 5ZM148.7 296L152.741 289H144.658L148.7 296ZM148 11.3L148 289.7H149.4L149.4 11.3H148Z" fill="black"/>
<line x1="149" y1="94.5" x2="230" y2="94.5" stroke="#FFC702" stroke-dasharray="2 2"/>
<line x1="230" y1="148.5" x2="230" y2="94.5" stroke="#FFC702" stroke-dasharray="2 2"/>
<circle cx="230" cy="95" r="4" fill="#0B8BAB"/>
<line x1="146" y1="206" x2="64.9999" y2="206" stroke="#FFC702" stroke-dasharray="2 2"/>
<line x1="64.9999" y1="152" x2="64.9999" y2="206" stroke="#FFC702" stroke-dasharray="2 2"/>
<circle cx="64.9999" cy="205.5" r="4" transform="rotate(180 64.9999 205.5)" fill="#0B8BAB"/>
<path d="M158.523 22.4805C158.309 22.9648 158.1 23.3574 157.896 23.6582C157.693 23.959 157.469 24.1855 157.223 24.3379C156.98 24.4902 156.691 24.5664 156.355 24.5664C156.141 24.5664 155.898 24.541 155.629 24.4902V23.3301H156.15C156.197 23.4902 156.256 23.6016 156.326 23.6641C156.396 23.7266 156.498 23.7578 156.631 23.7578C156.748 23.7578 156.852 23.7344 156.941 23.6875C157.035 23.6445 157.131 23.5684 157.229 23.459C157.33 23.3496 157.447 23.1816 157.58 22.9551C157.717 22.7285 157.869 22.4414 158.037 22.0938L156.396 17.6816C156.291 17.3965 156.205 17.1973 156.139 17.084C156.076 16.9707 156.008 16.8848 155.934 16.8262C155.859 16.7676 155.746 16.7207 155.594 16.6855V16.3984H157.979V16.6855C157.795 16.7285 157.666 16.7715 157.592 16.8145C157.518 16.8535 157.463 16.9062 157.428 16.9727C157.393 17.0352 157.375 17.1172 157.375 17.2188C157.375 17.3242 157.387 17.4336 157.41 17.5469C157.438 17.6602 157.479 17.793 157.533 17.9453L158.576 20.8809L159.748 18.0684C159.814 17.9121 159.865 17.7695 159.9 17.6406C159.939 17.5078 159.959 17.3848 159.959 17.2715C159.959 17.1035 159.912 16.9766 159.818 16.8906C159.729 16.8047 159.57 16.7363 159.344 16.6855V16.3984H161.535V16.6855C161.383 16.7168 161.266 16.7656 161.184 16.832C161.102 16.8945 161.02 16.9961 160.938 17.1367C160.855 17.2734 160.758 17.4668 160.645 17.7168L158.523 22.4805Z" fill="black"/>
<path d="M277.646 161.619L278.408 160.652C278.49 160.547 278.557 160.445 278.607 160.348C278.658 160.246 278.684 160.143 278.684 160.037C278.684 159.947 278.65 159.873 278.584 159.814C278.518 159.756 278.414 159.713 278.273 159.686V159.398H280.189V159.686C280.041 159.729 279.889 159.812 279.732 159.938C279.58 160.062 279.393 160.264 279.17 160.541L277.957 162.029L279.293 163.828C279.484 164.086 279.656 164.283 279.809 164.42C279.961 164.557 280.113 164.654 280.266 164.713V165H277.91V164.713C278.234 164.674 278.396 164.553 278.396 164.35C278.396 164.268 278.383 164.189 278.355 164.115C278.328 164.041 278.277 163.955 278.203 163.857L277.354 162.674L276.451 163.846C276.385 163.932 276.332 164.012 276.293 164.086C276.258 164.156 276.24 164.236 276.24 164.326C276.24 164.432 276.275 164.52 276.346 164.59C276.42 164.656 276.535 164.697 276.691 164.713V165H274.734V164.713C274.863 164.666 274.979 164.607 275.08 164.537C275.186 164.467 275.291 164.377 275.396 164.268C275.506 164.154 275.648 163.99 275.824 163.775L277.043 162.264L275.795 160.553C275.623 160.318 275.486 160.148 275.385 160.043C275.283 159.938 275.189 159.857 275.104 159.803C275.018 159.748 274.932 159.709 274.846 159.686V159.398H277.143V159.686C276.834 159.732 276.68 159.854 276.68 160.049C276.68 160.139 276.699 160.229 276.738 160.318C276.781 160.408 276.846 160.508 276.932 160.617L277.646 161.619Z" fill="black"/>
<path d="M221.417 84.7764C221.417 85.8018 221.581 86.647 221.909 87.312C222.24 87.9771 222.744 88.4224 223.42 88.6479L223.315 88.9863C222.457 88.7607 221.799 88.2744 221.342 87.5273C220.885 86.7832 220.656 85.8809 220.656 84.8203C220.656 83.7627 220.885 82.8604 221.342 82.1133C221.802 81.3633 222.459 80.8755 223.315 80.6499L223.434 80.9883C222.748 81.2139 222.24 81.6548 221.909 82.311C221.581 82.9644 221.417 83.7861 221.417 84.7764ZM225.868 86.7847C226.05 86.7378 226.171 86.6865 226.233 86.6309C226.294 86.5723 226.334 86.4902 226.352 86.3848C226.372 86.2793 226.382 86.1182 226.382 85.9014V85.1807H223.939V84.8511L226.51 80.9707H227.138V84.7544H227.23C227.4 84.7544 227.522 84.7427 227.595 84.7192C227.668 84.6929 227.729 84.6489 227.775 84.5874C227.825 84.5229 227.871 84.4189 227.912 84.2754H228.246L228.193 85.1807H227.138V85.9014C227.138 86.0977 227.144 86.2412 227.156 86.332C227.17 86.4229 227.192 86.4946 227.222 86.5474C227.254 86.6001 227.299 86.644 227.358 86.6792C227.419 86.7144 227.518 86.7495 227.652 86.7847V87H225.868V86.7847ZM224.664 84.7544H226.382V83.6602C226.382 83.3848 226.387 83.0771 226.396 82.7373C226.404 82.3945 226.415 82.1367 226.426 81.9639H226.382L224.664 84.6929V84.7544ZM229.942 85.9805C229.983 86.1855 230.003 86.3877 230.003 86.5869C230.003 86.792 229.968 86.9795 229.898 87.1494C229.828 87.3193 229.715 87.4878 229.56 87.6548C229.407 87.8247 229.196 88.0107 228.927 88.2129L228.689 87.9448C228.839 87.8042 228.947 87.6768 229.015 87.5625C229.082 87.4512 229.13 87.3237 229.16 87.1802C229.189 87.0366 229.204 86.8564 229.204 86.6396C229.204 86.417 229.193 86.1973 229.173 85.9805H229.942ZM233.115 82.2451V81.4102C233.455 81.249 233.772 81.1289 234.068 81.0498C234.364 80.9707 234.65 80.9312 234.925 80.9312C235.256 80.9312 235.546 80.9824 235.795 81.085C236.044 81.1875 236.235 81.3354 236.367 81.5288C236.499 81.7192 236.564 81.9478 236.564 82.2144C236.564 82.4634 236.515 82.6831 236.415 82.8735C236.315 83.061 236.175 83.2251 235.993 83.3657C235.814 83.5063 235.582 83.644 235.294 83.7788V83.8184C235.473 83.8506 235.645 83.9062 235.809 83.9854C235.976 84.0615 236.124 84.1611 236.252 84.2842C236.381 84.4072 236.484 84.5552 236.56 84.728C236.639 84.8979 236.679 85.0928 236.679 85.3125C236.679 85.6523 236.604 85.9541 236.455 86.2178C236.308 86.4814 236.083 86.6895 235.778 86.8418C235.473 86.9941 235.103 87.0703 234.666 87.0703C234.414 87.0703 234.142 87.0425 233.849 86.9868C233.559 86.9282 233.292 86.8521 233.049 86.7583V85.8267H233.576C233.679 86.1313 233.813 86.3525 233.98 86.4902C234.15 86.6279 234.38 86.6968 234.67 86.6968C235.051 86.6968 235.338 86.5928 235.532 86.3848C235.728 86.1768 235.826 85.8691 235.826 85.4619C235.826 85.0342 235.697 84.7075 235.439 84.4819C235.182 84.2563 234.804 84.1436 234.306 84.1436H233.91V83.7568C234.306 83.7334 234.638 83.6572 234.908 83.5283C235.18 83.3994 235.382 83.2339 235.514 83.0317C235.646 82.8296 235.712 82.6025 235.712 82.3506C235.712 82.0254 235.625 81.7749 235.453 81.5991C235.28 81.4233 235.028 81.3354 234.697 81.3354C234.421 81.3354 234.197 81.4102 234.024 81.5596C233.852 81.709 233.724 81.9375 233.642 82.2451H233.115ZM239.583 84.7764C239.583 83.7861 239.419 82.9644 239.091 82.311C238.763 81.6548 238.255 81.2139 237.566 80.9883L237.685 80.6499C238.541 80.8755 239.197 81.3633 239.654 82.1133C240.114 82.8604 240.344 83.7627 240.344 84.8203C240.344 85.8809 240.115 86.7832 239.658 87.5273C239.201 88.2744 238.543 88.7607 237.685 88.9863L237.58 88.6479C238.256 88.4224 238.759 87.9771 239.087 87.312C239.418 86.647 239.583 85.8018 239.583 84.7764Z" fill="black"/>
<path d="M68.4214 218.776C68.4214 219.802 68.5854 220.647 68.9136 221.312C69.2446 221.977 69.7485 222.422 70.4253 222.648L70.3198 222.986C69.4614 222.761 68.8037 222.274 68.3467 221.527C67.8896 220.783 67.6611 219.881 67.6611 218.82C67.6611 217.763 67.8896 216.86 68.3467 216.113C68.8066 215.363 69.4644 214.875 70.3198 214.65L70.4385 214.988C69.7529 215.214 69.2446 215.655 68.9136 216.311C68.5854 216.964 68.4214 217.786 68.4214 218.776ZM73.1191 219.027H71.0801V218.346H73.1191V219.027ZM75.8613 220.785C76.043 220.738 76.1646 220.687 76.2261 220.631C76.2876 220.572 76.3271 220.49 76.3447 220.385C76.3652 220.279 76.3755 220.118 76.3755 219.901V219.181H73.9321V218.851L76.5029 214.971H77.1313V218.754H77.2236C77.3936 218.754 77.5151 218.743 77.5884 218.719C77.6616 218.693 77.7217 218.649 77.7686 218.587C77.8184 218.523 77.8638 218.419 77.9048 218.275H78.2388L78.186 219.181H77.1313V219.901C77.1313 220.098 77.1372 220.241 77.1489 220.332C77.1636 220.423 77.1855 220.495 77.2148 220.547C77.2471 220.6 77.2925 220.644 77.3511 220.679C77.4126 220.714 77.5107 220.75 77.6455 220.785V221H75.8613V220.785ZM74.6572 218.754H76.3755V217.66C76.3755 217.385 76.3799 217.077 76.3887 216.737C76.3975 216.395 76.4077 216.137 76.4194 215.964H76.3755L74.6572 218.693V218.754ZM79.9351 219.98C79.9761 220.186 79.9966 220.388 79.9966 220.587C79.9966 220.792 79.9614 220.979 79.8911 221.149C79.8208 221.319 79.708 221.488 79.5527 221.655C79.4004 221.825 79.1895 222.011 78.9199 222.213L78.6826 221.945C78.832 221.804 78.9404 221.677 79.0078 221.562C79.0752 221.451 79.1235 221.324 79.1528 221.18C79.1821 221.037 79.1968 220.856 79.1968 220.64C79.1968 220.417 79.1865 220.197 79.166 219.98H79.9351ZM82.9365 219.027H80.8975V218.346H82.9365V219.027ZM84.1099 216.245V215.41C84.4497 215.249 84.7676 215.129 85.0635 215.05C85.3594 214.971 85.645 214.931 85.9204 214.931C86.2515 214.931 86.5415 214.982 86.7905 215.085C87.0396 215.188 87.23 215.335 87.3618 215.529C87.4937 215.719 87.5596 215.948 87.5596 216.214C87.5596 216.463 87.5098 216.683 87.4102 216.874C87.3105 217.061 87.1699 217.225 86.9883 217.366C86.8096 217.506 86.5767 217.644 86.2896 217.779V217.818C86.4683 217.851 86.6396 217.906 86.8037 217.985C86.9707 218.062 87.1187 218.161 87.2476 218.284C87.3765 218.407 87.479 218.555 87.5552 218.728C87.6343 218.898 87.6738 219.093 87.6738 219.312C87.6738 219.652 87.5991 219.954 87.4497 220.218C87.3032 220.481 87.0776 220.689 86.7729 220.842C86.4683 220.994 86.0977 221.07 85.6611 221.07C85.4092 221.07 85.1367 221.042 84.8438 220.987C84.5537 220.928 84.2871 220.852 84.0439 220.758V219.827H84.5713C84.6738 220.131 84.8086 220.353 84.9756 220.49C85.1455 220.628 85.3755 220.697 85.6655 220.697C86.0464 220.697 86.3335 220.593 86.5269 220.385C86.7231 220.177 86.8213 219.869 86.8213 219.462C86.8213 219.034 86.6924 218.708 86.4346 218.482C86.1768 218.256 85.7988 218.144 85.3008 218.144H84.9053V217.757C85.3008 217.733 85.6333 217.657 85.9028 217.528C86.1753 217.399 86.3774 217.234 86.5093 217.032C86.6411 216.83 86.707 216.603 86.707 216.351C86.707 216.025 86.6206 215.775 86.4478 215.599C86.2749 215.423 86.0229 215.335 85.6919 215.335C85.4165 215.335 85.1924 215.41 85.0195 215.56C84.8467 215.709 84.7192 215.938 84.6372 216.245H84.1099ZM90.5786 218.776C90.5786 217.786 90.4146 216.964 90.0864 216.311C89.7583 215.655 89.25 215.214 88.5615 214.988L88.6802 214.65C89.5356 214.875 90.1919 215.363 90.6489 216.113C91.1089 216.86 91.3389 217.763 91.3389 218.82C91.3389 219.881 91.1104 220.783 90.6533 221.527C90.1963 222.274 89.5386 222.761 88.6802 222.986L88.5747 222.648C89.2515 222.422 89.7539 221.977 90.082 221.312C90.4131 220.647 90.5786 219.802 90.5786 218.776Z" fill="black"/>
</svg>
